<svg xmlns="http://www.w3.org/2000/svg" id="Screenshot" viewBox="0 0 400 140"><defs><style>.cls-1{fill:#556a8a}.cls-2{fill:#adbdca}.cls-3{fill:#fff}.cls-4{fill:#e5e5e5}.cls-5,.cls-6,.cls-8{fill:none}.cls-5,.cls-8{stroke:#556a8a}.cls-5,.cls-7{stroke-miterlimit:10}.cls-5,.cls-7,.cls-8{stroke-width:2px}.cls-7{fill:#c6df33;stroke:#bad80a}.cls-8{stroke-linecap:round;stroke-linejoin:round;fill-rule:evenodd}.cls-9{fill:#2bc7f4}.cls-10{fill:#80cee9}</style></defs><title>biztalk-get-started-scenarios</title><g><g><polygon points="260 126 143 126 150.32 118 253.15 118 260 126" class="cls-1"/><polygon points="249 124 154 124 157.34 120 245.76 120 249 124" class="cls-2"/><polygon points="227 106 175 106 169 113 233 113 227 106" class="cls-1"/><polygon points="204.5 111 197.5 111 198.9 97 203.1 97 204.5 111" class="cls-1"/><rect width="150" height="82" x="125.25" y="16.5" class="cls-3" rx="4" ry="4" transform="translate(400.5 115) rotate(180)"/><path d="M275.75,21V33h-150V21a4,4,0,0,1,4-4H271.78A4,4,0,0,1,275.75,21Z" class="cls-4"/><rect width="150" height="82" x="125.25" y="17" class="cls-5" rx="4" ry="4" transform="translate(400.5 116) rotate(180)"/><rect width="183" height="127" x="110.75" y="8.5" class="cls-6"/></g><path d="M107.8,20.31a20,20,0,1,1-1.55,7.8A19.77,19.77,0,0,1,107.8,20.31Z" class="cls-7"/><polyline points="112.25 30 121.25 39 140.25 20" class="cls-8"/><path d="M250.77,40.19a8.7,8.7,0,0,0-3.68,2.64L241.3,27.4l-15.44,5.79a8.75,8.75,0,1,0-14.17,5.32L196.25,44.3l6.42,17.12a8.75,8.75,0,1,1,4.06,10.81l6.42,17.12,45-16.9L252.41,57a8.75,8.75,0,1,0-1.64-16.81Z" class="cls-4"/><path d="M247.43,38.85a8.7,8.7,0,0,0-3.68,2.64L238,26.05l-15.44,5.79a8.75,8.75,0,1,0-14.17,5.32L192.91,43l6.42,17.12a8.75,8.75,0,1,1,4.06,10.81L209.81,88l45-16.9-5.79-15.44a8.75,8.75,0,1,0-1.64-16.81Z" class="cls-9"/><path d="M185.43,65.85a8.7,8.7,0,0,0-3.68,2.64L176,53.05l-17.12,6.42A8.75,8.75,0,1,1,148,63.53L130.91,70l16.9,45,15.44-5.79,1.68-.63a8.75,8.75,0,1,1,10.81-4.06l1.68-.63,15.44-5.79-5.79-15.44a8.75,8.75,0,1,0-1.64-16.81Z" class="cls-4"/><path d="M186.43,62.8a8.7,8.7,0,0,0-3.68,2.64L177,50l-17.12,6.42A8.75,8.75,0,1,1,149,60.48L131.91,66.9l16.9,45,15.44-5.79,1.68-.63a8.75,8.75,0,1,1,10.81-4.06l1.68-.63L193.85,95l-5.79-15.44a8.75,8.75,0,1,0-1.64-16.81Z" class="cls-10"/></g></svg>